{
 "cells": [
  {
   "cell_type": "code",
   "execution_count": 68,
   "metadata": {},
   "outputs": [],
   "source": [
    "import json\n",
    "from moviepy.video.io.ffmpeg_tools import ffmpeg_extract_subclip\n",
    "import os"
   ]
  },
  {
   "cell_type": "code",
   "execution_count": 63,
   "metadata": {},
   "outputs": [],
   "source": [
    "json_file = '/home/nele_pauline_suffo/projects/mmaction2/data/quantex_share/anno_train.json'\n",
    "with open(json_file, 'r') as f:\n",
    "    data = json.load(f)"
   ]
  },
  {
   "cell_type": "code",
   "execution_count": 69,
   "metadata": {},
   "outputs": [
    {
     "name": "stdout",
     "output_type": "stream",
     "text": [
      "Moviepy - Running:\n",
      ">>> \"+ \" \".join(cmd)\n",
      "Moviepy - Command returned an error\n"
     ]
    },
    {
     "ename": "OSError",
     "evalue": "ffmpeg version 4.2.2-static https://johnvansickle.com/ffmpeg/  Copyright (c) 2000-2019 the FFmpeg developers\n  built with gcc 8 (Debian 8.3.0-6)\n  configuration: --enable-gpl --enable-version3 --enable-static --disable-debug --disable-ffplay --disable-indev=sndio --disable-outdev=sndio --cc=gcc --enable-fontconfig --enable-frei0r --enable-gnutls --enable-gmp --enable-libgme --enable-gray --enable-libaom --enable-libfribidi --enable-libass --enable-libvmaf --enable-libfreetype --enable-libmp3lame --enable-libopencore-amrnb --enable-libopencore-amrwb --enable-libopenjpeg --enable-librubberband --enable-libsoxr --enable-libspeex --enable-libsrt --enable-libvorbis --enable-libopus --enable-libtheora --enable-libvidstab --enable-libvo-amrwbenc --enable-libvpx --enable-libwebp --enable-libx264 --enable-libx265 --enable-libxml2 --enable-libdav1d --enable-libxvid --enable-libzvbi --enable-libzimg\n  libavutil      56. 31.100 / 56. 31.100\n  libavcodec     58. 54.100 / 58. 54.100\n  libavformat    58. 29.100 / 58. 29.100\n  libavdevice    58.  8.100 / 58.  8.100\n  libavfilter     7. 57.100 /  7. 57.100\n  libswscale      5.  5.100 /  5.  5.100\n  libswresample   3.  5.100 /  3.  5.100\n  libpostproc    55.  5.100 / 55.  5.100\n[mov,mp4,m4a,3gp,3g2,mj2 @ 0x14e2ca40] unsupported color_parameter_type aclc\nInput #0, mov,mp4,m4a,3gp,3g2,mj2, from '/home/nele_pauline_suffo/ProcessedData/videos_superannotate/147984.MP4':\n  Metadata:\n    major_brand     : avc1\n    minor_version   : 0\n    compatible_brands: avc1isom\n    creation_time   : 2024-06-12T20:48:39.000000Z\n  Duration: 00:10:06.64, start: 0.000000, bitrate: 7750 kb/s\n    Stream #0:0(eng): Video: h264 (Main) (avc1 / 0x31637661), yuvj420p(pc), 2304x1296 [SAR 1:1 DAR 16:9], 7552 kb/s, 29.97 fps, 29.97 tbr, 30k tbn, 59.94 tbc (default)\n    Metadata:\n      creation_time   : 2024-06-12T20:48:39.000000Z\n      handler_name    :  Ambarella AVC\n      encoder         : Ambarella AVC encoder\n    Stream #0:1(eng): Audio: aac (LC) (mp4a / 0x6134706D), 48000 Hz, mono, fltp, 63 kb/s (default)\n    Metadata:\n      creation_time   : 2024-06-12T20:48:39.000000Z\n      handler_name    :  Ambarella AAC\n    Stream #0:2(eng): Subtitle: mov_text (text / 0x74786574), 10 kb/s (default)\n    Metadata:\n      creation_time   : 2024-06-12T20:48:39.000000Z\n      handler_name    :  Ambarella EXT\nAutomatic encoder selection failed for output stream #0:2. Default encoder for format mp4 (codec none) is probably disabled. Please choose an encoder manually.\nError selecting an encoder for stream 0:2\n",
     "output_type": "error",
     "traceback": [
      "\u001b[0;31m---------------------------------------------------------------------------\u001b[0m",
      "\u001b[0;31mOSError\u001b[0m                                   Traceback (most recent call last)",
      "Cell \u001b[0;32mIn[69], line 1\u001b[0m\n\u001b[0;32m----> 1\u001b[0m \u001b[43mffmpeg_extract_subclip\u001b[49m\u001b[43m(\u001b[49m\u001b[38;5;124;43m\"\u001b[39;49m\u001b[38;5;124;43m/home/nele_pauline_suffo/ProcessedData/videos_superannotate/147984.MP4\u001b[39;49m\u001b[38;5;124;43m\"\u001b[39;49m\u001b[43m,\u001b[49m\u001b[43m \u001b[49m\u001b[38;5;241;43m0\u001b[39;49m\u001b[43m,\u001b[49m\u001b[43m \u001b[49m\u001b[38;5;241;43m20\u001b[39;49m\u001b[43m,\u001b[49m\u001b[43m \u001b[49m\u001b[43mtargetname\u001b[49m\u001b[38;5;241;43m=\u001b[39;49m\u001b[38;5;124;43m\"\u001b[39;49m\u001b[38;5;124;43m/home/nele_pauline_suffo/ProcessedData/videos_superannotate/147984_cut.MP4\u001b[39;49m\u001b[38;5;124;43m\"\u001b[39;49m\u001b[43m)\u001b[49m\n",
      "File \u001b[0;32m~/.conda/envs/openmmlab/lib/python3.8/site-packages/moviepy/video/io/ffmpeg_tools.py:41\u001b[0m, in \u001b[0;36mffmpeg_extract_subclip\u001b[0;34m(filename, t1, t2, targetname)\u001b[0m\n\u001b[1;32m     33\u001b[0m     targetname \u001b[38;5;241m=\u001b[39m \u001b[38;5;124m\"\u001b[39m\u001b[38;5;132;01m%s\u001b[39;00m\u001b[38;5;124mSUB\u001b[39m\u001b[38;5;132;01m%d\u001b[39;00m\u001b[38;5;124m_\u001b[39m\u001b[38;5;132;01m%d\u001b[39;00m\u001b[38;5;124m.\u001b[39m\u001b[38;5;132;01m%s\u001b[39;00m\u001b[38;5;124m\"\u001b[39m \u001b[38;5;241m%\u001b[39m (name, T1, T2, ext)\n\u001b[1;32m     35\u001b[0m cmd \u001b[38;5;241m=\u001b[39m [get_setting(\u001b[38;5;124m\"\u001b[39m\u001b[38;5;124mFFMPEG_BINARY\u001b[39m\u001b[38;5;124m\"\u001b[39m),\u001b[38;5;124m\"\u001b[39m\u001b[38;5;124m-y\u001b[39m\u001b[38;5;124m\"\u001b[39m,\n\u001b[1;32m     36\u001b[0m        \u001b[38;5;124m\"\u001b[39m\u001b[38;5;124m-ss\u001b[39m\u001b[38;5;124m\"\u001b[39m, \u001b[38;5;124m\"\u001b[39m\u001b[38;5;132;01m%0.2f\u001b[39;00m\u001b[38;5;124m\"\u001b[39m\u001b[38;5;241m%\u001b[39mt1,\n\u001b[1;32m     37\u001b[0m        \u001b[38;5;124m\"\u001b[39m\u001b[38;5;124m-i\u001b[39m\u001b[38;5;124m\"\u001b[39m, filename,\n\u001b[1;32m     38\u001b[0m        \u001b[38;5;124m\"\u001b[39m\u001b[38;5;124m-t\u001b[39m\u001b[38;5;124m\"\u001b[39m, \u001b[38;5;124m\"\u001b[39m\u001b[38;5;132;01m%0.2f\u001b[39;00m\u001b[38;5;124m\"\u001b[39m\u001b[38;5;241m%\u001b[39m(t2\u001b[38;5;241m-\u001b[39mt1),\n\u001b[1;32m     39\u001b[0m        \u001b[38;5;124m\"\u001b[39m\u001b[38;5;124m-map\u001b[39m\u001b[38;5;124m\"\u001b[39m, \u001b[38;5;124m\"\u001b[39m\u001b[38;5;124m0\u001b[39m\u001b[38;5;124m\"\u001b[39m, \u001b[38;5;124m\"\u001b[39m\u001b[38;5;124m-vcodec\u001b[39m\u001b[38;5;124m\"\u001b[39m, \u001b[38;5;124m\"\u001b[39m\u001b[38;5;124mcopy\u001b[39m\u001b[38;5;124m\"\u001b[39m, \u001b[38;5;124m\"\u001b[39m\u001b[38;5;124m-acodec\u001b[39m\u001b[38;5;124m\"\u001b[39m, \u001b[38;5;124m\"\u001b[39m\u001b[38;5;124mcopy\u001b[39m\u001b[38;5;124m\"\u001b[39m, targetname]\n\u001b[0;32m---> 41\u001b[0m \u001b[43msubprocess_call\u001b[49m\u001b[43m(\u001b[49m\u001b[43mcmd\u001b[49m\u001b[43m)\u001b[49m\n",
      "File \u001b[0;32m~/.conda/envs/openmmlab/lib/python3.8/site-packages/moviepy/tools.py:54\u001b[0m, in \u001b[0;36msubprocess_call\u001b[0;34m(cmd, logger, errorprint)\u001b[0m\n\u001b[1;32m     52\u001b[0m     \u001b[38;5;28;01mif\u001b[39;00m errorprint:\n\u001b[1;32m     53\u001b[0m         logger(message\u001b[38;5;241m=\u001b[39m\u001b[38;5;124m'\u001b[39m\u001b[38;5;124mMoviepy - Command returned an error\u001b[39m\u001b[38;5;124m'\u001b[39m)\n\u001b[0;32m---> 54\u001b[0m     \u001b[38;5;28;01mraise\u001b[39;00m \u001b[38;5;167;01mIOError\u001b[39;00m(err\u001b[38;5;241m.\u001b[39mdecode(\u001b[38;5;124m'\u001b[39m\u001b[38;5;124mutf8\u001b[39m\u001b[38;5;124m'\u001b[39m))\n\u001b[1;32m     55\u001b[0m \u001b[38;5;28;01melse\u001b[39;00m:\n\u001b[1;32m     56\u001b[0m     logger(message\u001b[38;5;241m=\u001b[39m\u001b[38;5;124m'\u001b[39m\u001b[38;5;124mMoviepy - Command successful\u001b[39m\u001b[38;5;124m'\u001b[39m)\n",
      "\u001b[0;31mOSError\u001b[0m: ffmpeg version 4.2.2-static https://johnvansickle.com/ffmpeg/  Copyright (c) 2000-2019 the FFmpeg developers\n  built with gcc 8 (Debian 8.3.0-6)\n  configuration: --enable-gpl --enable-version3 --enable-static --disable-debug --disable-ffplay --disable-indev=sndio --disable-outdev=sndio --cc=gcc --enable-fontconfig --enable-frei0r --enable-gnutls --enable-gmp --enable-libgme --enable-gray --enable-libaom --enable-libfribidi --enable-libass --enable-libvmaf --enable-libfreetype --enable-libmp3lame --enable-libopencore-amrnb --enable-libopencore-amrwb --enable-libopenjpeg --enable-librubberband --enable-libsoxr --enable-libspeex --enable-libsrt --enable-libvorbis --enable-libopus --enable-libtheora --enable-libvidstab --enable-libvo-amrwbenc --enable-libvpx --enable-libwebp --enable-libx264 --enable-libx265 --enable-libxml2 --enable-libdav1d --enable-libxvid --enable-libzvbi --enable-libzimg\n  libavutil      56. 31.100 / 56. 31.100\n  libavcodec     58. 54.100 / 58. 54.100\n  libavformat    58. 29.100 / 58. 29.100\n  libavdevice    58.  8.100 / 58.  8.100\n  libavfilter     7. 57.100 /  7. 57.100\n  libswscale      5.  5.100 /  5.  5.100\n  libswresample   3.  5.100 /  3.  5.100\n  libpostproc    55.  5.100 / 55.  5.100\n[mov,mp4,m4a,3gp,3g2,mj2 @ 0x14e2ca40] unsupported color_parameter_type aclc\nInput #0, mov,mp4,m4a,3gp,3g2,mj2, from '/home/nele_pauline_suffo/ProcessedData/videos_superannotate/147984.MP4':\n  Metadata:\n    major_brand     : avc1\n    minor_version   : 0\n    compatible_brands: avc1isom\n    creation_time   : 2024-06-12T20:48:39.000000Z\n  Duration: 00:10:06.64, start: 0.000000, bitrate: 7750 kb/s\n    Stream #0:0(eng): Video: h264 (Main) (avc1 / 0x31637661), yuvj420p(pc), 2304x1296 [SAR 1:1 DAR 16:9], 7552 kb/s, 29.97 fps, 29.97 tbr, 30k tbn, 59.94 tbc (default)\n    Metadata:\n      creation_time   : 2024-06-12T20:48:39.000000Z\n      handler_name    :  Ambarella AVC\n      encoder         : Ambarella AVC encoder\n    Stream #0:1(eng): Audio: aac (LC) (mp4a / 0x6134706D), 48000 Hz, mono, fltp, 63 kb/s (default)\n    Metadata:\n      creation_time   : 2024-06-12T20:48:39.000000Z\n      handler_name    :  Ambarella AAC\n    Stream #0:2(eng): Subtitle: mov_text (text / 0x74786574), 10 kb/s (default)\n    Metadata:\n      creation_time   : 2024-06-12T20:48:39.000000Z\n      handler_name    :  Ambarella EXT\nAutomatic encoder selection failed for output stream #0:2. Default encoder for format mp4 (codec none) is probably disabled. Please choose an encoder manually.\nError selecting an encoder for stream 0:2\n"
     ]
    }
   ],
   "source": [
    "ffmpeg_extract_subclip(\"/home/nele_pauline_suffo/ProcessedData/videos_superannotate/147984.MP4\", 0, 20, targetname=\"/home/nele_pauline_suffo/ProcessedData/videos_superannotate/147984_cut.MP4\")"
   ]
  },
  {
   "cell_type": "code",
   "execution_count": 70,
   "metadata": {},
   "outputs": [
    {
     "name": "stdout",
     "output_type": "stream",
     "text": [
      "Moviepy - Building video /home/nele_pauline_suffo/ProcessedData/videos_superannotate/147984_cut.MP4.\n",
      "MoviePy - Writing audio in 147984_cutTEMP_MPY_wvf_snd.mp3\n"
     ]
    },
    {
     "name": "stderr",
     "output_type": "stream",
     "text": [
      "                                                                        \r"
     ]
    },
    {
     "name": "stdout",
     "output_type": "stream",
     "text": [
      "MoviePy - Done.\n",
      "Moviepy - Writing video /home/nele_pauline_suffo/ProcessedData/videos_superannotate/147984_cut.MP4\n",
      "\n"
     ]
    },
    {
     "ename": "TypeError",
     "evalue": "must be real number, not NoneType",
     "output_type": "error",
     "traceback": [
      "\u001b[0;31m---------------------------------------------------------------------------\u001b[0m",
      "\u001b[0;31mTypeError\u001b[0m                                 Traceback (most recent call last)",
      "Cell \u001b[0;32mIn[70], line 10\u001b[0m\n\u001b[1;32m      8\u001b[0m \u001b[38;5;28;01mwith\u001b[39;00m VideoFileClip(input_video_path) \u001b[38;5;28;01mas\u001b[39;00m video:\n\u001b[1;32m      9\u001b[0m     new \u001b[38;5;241m=\u001b[39m video\u001b[38;5;241m.\u001b[39msubclip(t1, t2)\n\u001b[0;32m---> 10\u001b[0m     \u001b[43mnew\u001b[49m\u001b[38;5;241;43m.\u001b[39;49m\u001b[43mwrite_videofile\u001b[49m\u001b[43m(\u001b[49m\u001b[43moutput_video_path\u001b[49m\u001b[43m,\u001b[49m\u001b[43m \u001b[49m\u001b[43maudio_codec\u001b[49m\u001b[38;5;241;43m=\u001b[39;49m\u001b[38;5;124;43m'\u001b[39;49m\u001b[38;5;124;43maac\u001b[39;49m\u001b[38;5;124;43m'\u001b[39;49m\u001b[43m)\u001b[49m\n",
      "File \u001b[0;32m~/.conda/envs/openmmlab/lib/python3.8/site-packages/decorator.py:232\u001b[0m, in \u001b[0;36mfun\u001b[0;34m(*args, **kw)\u001b[0m\n\u001b[1;32m    230\u001b[0m evaldict \u001b[38;5;241m=\u001b[39m \u001b[38;5;28mdict\u001b[39m(_call_\u001b[38;5;241m=\u001b[39mcaller, _func_\u001b[38;5;241m=\u001b[39mfunc)\n\u001b[1;32m    231\u001b[0m es \u001b[38;5;241m=\u001b[39m \u001b[38;5;124m'\u001b[39m\u001b[38;5;124m'\u001b[39m\n\u001b[0;32m--> 232\u001b[0m \u001b[38;5;28;01mfor\u001b[39;00m i, extra \u001b[38;5;129;01min\u001b[39;00m \u001b[38;5;28menumerate\u001b[39m(extras):\n\u001b[1;32m    233\u001b[0m     ex \u001b[38;5;241m=\u001b[39m \u001b[38;5;124m'\u001b[39m\u001b[38;5;124m_e\u001b[39m\u001b[38;5;132;01m%d\u001b[39;00m\u001b[38;5;124m_\u001b[39m\u001b[38;5;124m'\u001b[39m \u001b[38;5;241m%\u001b[39m i\n\u001b[1;32m    234\u001b[0m     evaldict[ex] \u001b[38;5;241m=\u001b[39m extra\n",
      "File \u001b[0;32m~/.conda/envs/openmmlab/lib/python3.8/site-packages/moviepy/decorators.py:54\u001b[0m, in \u001b[0;36mrequires_duration\u001b[0;34m(f, clip, *a, **k)\u001b[0m\n\u001b[1;32m     52\u001b[0m     \u001b[38;5;28;01mraise\u001b[39;00m \u001b[38;5;167;01mValueError\u001b[39;00m(\u001b[38;5;124m\"\u001b[39m\u001b[38;5;124mAttribute \u001b[39m\u001b[38;5;124m'\u001b[39m\u001b[38;5;124mduration\u001b[39m\u001b[38;5;124m'\u001b[39m\u001b[38;5;124m not set\u001b[39m\u001b[38;5;124m\"\u001b[39m)\n\u001b[1;32m     53\u001b[0m \u001b[38;5;28;01melse\u001b[39;00m:\n\u001b[0;32m---> 54\u001b[0m     \u001b[38;5;28;01mreturn\u001b[39;00m \u001b[43mf\u001b[49m\u001b[43m(\u001b[49m\u001b[43mclip\u001b[49m\u001b[43m,\u001b[49m\u001b[43m \u001b[49m\u001b[38;5;241;43m*\u001b[39;49m\u001b[43ma\u001b[49m\u001b[43m,\u001b[49m\u001b[43m \u001b[49m\u001b[38;5;241;43m*\u001b[39;49m\u001b[38;5;241;43m*\u001b[39;49m\u001b[43mk\u001b[49m\u001b[43m)\u001b[49m\n",
      "File \u001b[0;32m~/.conda/envs/openmmlab/lib/python3.8/site-packages/decorator.py:232\u001b[0m, in \u001b[0;36mfun\u001b[0;34m(*args, **kw)\u001b[0m\n\u001b[1;32m    230\u001b[0m evaldict \u001b[38;5;241m=\u001b[39m \u001b[38;5;28mdict\u001b[39m(_call_\u001b[38;5;241m=\u001b[39mcaller, _func_\u001b[38;5;241m=\u001b[39mfunc)\n\u001b[1;32m    231\u001b[0m es \u001b[38;5;241m=\u001b[39m \u001b[38;5;124m'\u001b[39m\u001b[38;5;124m'\u001b[39m\n\u001b[0;32m--> 232\u001b[0m \u001b[38;5;28;01mfor\u001b[39;00m i, extra \u001b[38;5;129;01min\u001b[39;00m \u001b[38;5;28menumerate\u001b[39m(extras):\n\u001b[1;32m    233\u001b[0m     ex \u001b[38;5;241m=\u001b[39m \u001b[38;5;124m'\u001b[39m\u001b[38;5;124m_e\u001b[39m\u001b[38;5;132;01m%d\u001b[39;00m\u001b[38;5;124m_\u001b[39m\u001b[38;5;124m'\u001b[39m \u001b[38;5;241m%\u001b[39m i\n\u001b[1;32m    234\u001b[0m     evaldict[ex] \u001b[38;5;241m=\u001b[39m extra\n",
      "File \u001b[0;32m~/.conda/envs/openmmlab/lib/python3.8/site-packages/moviepy/decorators.py:135\u001b[0m, in \u001b[0;36muse_clip_fps_by_default\u001b[0;34m(f, clip, *a, **k)\u001b[0m\n\u001b[1;32m    130\u001b[0m new_a \u001b[38;5;241m=\u001b[39m [fun(arg) \u001b[38;5;28;01mif\u001b[39;00m (name\u001b[38;5;241m==\u001b[39m\u001b[38;5;124m'\u001b[39m\u001b[38;5;124mfps\u001b[39m\u001b[38;5;124m'\u001b[39m) \u001b[38;5;28;01melse\u001b[39;00m arg\n\u001b[1;32m    131\u001b[0m          \u001b[38;5;28;01mfor\u001b[39;00m (arg, name) \u001b[38;5;129;01min\u001b[39;00m \u001b[38;5;28mzip\u001b[39m(a, names)]\n\u001b[1;32m    132\u001b[0m new_kw \u001b[38;5;241m=\u001b[39m {k: fun(v) \u001b[38;5;28;01mif\u001b[39;00m k\u001b[38;5;241m==\u001b[39m\u001b[38;5;124m'\u001b[39m\u001b[38;5;124mfps\u001b[39m\u001b[38;5;124m'\u001b[39m \u001b[38;5;28;01melse\u001b[39;00m v\n\u001b[1;32m    133\u001b[0m          \u001b[38;5;28;01mfor\u001b[39;00m (k,v) \u001b[38;5;129;01min\u001b[39;00m k\u001b[38;5;241m.\u001b[39mitems()}\n\u001b[0;32m--> 135\u001b[0m \u001b[38;5;28;01mreturn\u001b[39;00m \u001b[43mf\u001b[49m\u001b[43m(\u001b[49m\u001b[43mclip\u001b[49m\u001b[43m,\u001b[49m\u001b[43m \u001b[49m\u001b[38;5;241;43m*\u001b[39;49m\u001b[43mnew_a\u001b[49m\u001b[43m,\u001b[49m\u001b[43m \u001b[49m\u001b[38;5;241;43m*\u001b[39;49m\u001b[38;5;241;43m*\u001b[39;49m\u001b[43mnew_kw\u001b[49m\u001b[43m)\u001b[49m\n",
      "File \u001b[0;32m~/.conda/envs/openmmlab/lib/python3.8/site-packages/decorator.py:232\u001b[0m, in \u001b[0;36mfun\u001b[0;34m(*args, **kw)\u001b[0m\n\u001b[1;32m    230\u001b[0m evaldict \u001b[38;5;241m=\u001b[39m \u001b[38;5;28mdict\u001b[39m(_call_\u001b[38;5;241m=\u001b[39mcaller, _func_\u001b[38;5;241m=\u001b[39mfunc)\n\u001b[1;32m    231\u001b[0m es \u001b[38;5;241m=\u001b[39m \u001b[38;5;124m'\u001b[39m\u001b[38;5;124m'\u001b[39m\n\u001b[0;32m--> 232\u001b[0m \u001b[38;5;28;01mfor\u001b[39;00m i, extra \u001b[38;5;129;01min\u001b[39;00m \u001b[38;5;28menumerate\u001b[39m(extras):\n\u001b[1;32m    233\u001b[0m     ex \u001b[38;5;241m=\u001b[39m \u001b[38;5;124m'\u001b[39m\u001b[38;5;124m_e\u001b[39m\u001b[38;5;132;01m%d\u001b[39;00m\u001b[38;5;124m_\u001b[39m\u001b[38;5;124m'\u001b[39m \u001b[38;5;241m%\u001b[39m i\n\u001b[1;32m    234\u001b[0m     evaldict[ex] \u001b[38;5;241m=\u001b[39m extra\n",
      "File \u001b[0;32m~/.conda/envs/openmmlab/lib/python3.8/site-packages/moviepy/decorators.py:22\u001b[0m, in \u001b[0;36mconvert_masks_to_RGB\u001b[0;34m(f, clip, *a, **k)\u001b[0m\n\u001b[1;32m     20\u001b[0m \u001b[38;5;28;01mif\u001b[39;00m clip\u001b[38;5;241m.\u001b[39mismask:\n\u001b[1;32m     21\u001b[0m     clip \u001b[38;5;241m=\u001b[39m clip\u001b[38;5;241m.\u001b[39mto_RGB()\n\u001b[0;32m---> 22\u001b[0m \u001b[38;5;28;01mreturn\u001b[39;00m \u001b[43mf\u001b[49m\u001b[43m(\u001b[49m\u001b[43mclip\u001b[49m\u001b[43m,\u001b[49m\u001b[43m \u001b[49m\u001b[38;5;241;43m*\u001b[39;49m\u001b[43ma\u001b[49m\u001b[43m,\u001b[49m\u001b[43m \u001b[49m\u001b[38;5;241;43m*\u001b[39;49m\u001b[38;5;241;43m*\u001b[39;49m\u001b[43mk\u001b[49m\u001b[43m)\u001b[49m\n",
      "File \u001b[0;32m~/.conda/envs/openmmlab/lib/python3.8/site-packages/moviepy/video/VideoClip.py:300\u001b[0m, in \u001b[0;36mVideoClip.write_videofile\u001b[0;34m(self, filename, fps, codec, bitrate, audio, audio_fps, preset, audio_nbytes, audio_codec, audio_bitrate, audio_bufsize, temp_audiofile, rewrite_audio, remove_temp, write_logfile, verbose, threads, ffmpeg_params, logger)\u001b[0m\n\u001b[1;32m    292\u001b[0m \u001b[38;5;28;01mif\u001b[39;00m make_audio:\n\u001b[1;32m    293\u001b[0m     \u001b[38;5;28mself\u001b[39m\u001b[38;5;241m.\u001b[39maudio\u001b[38;5;241m.\u001b[39mwrite_audiofile(audiofile, audio_fps,\n\u001b[1;32m    294\u001b[0m                                audio_nbytes, audio_bufsize,\n\u001b[1;32m    295\u001b[0m                                audio_codec, bitrate\u001b[38;5;241m=\u001b[39maudio_bitrate,\n\u001b[1;32m    296\u001b[0m                                write_logfile\u001b[38;5;241m=\u001b[39mwrite_logfile,\n\u001b[1;32m    297\u001b[0m                                verbose\u001b[38;5;241m=\u001b[39mverbose,\n\u001b[1;32m    298\u001b[0m                                logger\u001b[38;5;241m=\u001b[39mlogger)\n\u001b[0;32m--> 300\u001b[0m \u001b[43mffmpeg_write_video\u001b[49m\u001b[43m(\u001b[49m\u001b[38;5;28;43mself\u001b[39;49m\u001b[43m,\u001b[49m\u001b[43m \u001b[49m\u001b[43mfilename\u001b[49m\u001b[43m,\u001b[49m\u001b[43m \u001b[49m\u001b[43mfps\u001b[49m\u001b[43m,\u001b[49m\u001b[43m \u001b[49m\u001b[43mcodec\u001b[49m\u001b[43m,\u001b[49m\n\u001b[1;32m    301\u001b[0m \u001b[43m                   \u001b[49m\u001b[43mbitrate\u001b[49m\u001b[38;5;241;43m=\u001b[39;49m\u001b[43mbitrate\u001b[49m\u001b[43m,\u001b[49m\n\u001b[1;32m    302\u001b[0m \u001b[43m                   \u001b[49m\u001b[43mpreset\u001b[49m\u001b[38;5;241;43m=\u001b[39;49m\u001b[43mpreset\u001b[49m\u001b[43m,\u001b[49m\n\u001b[1;32m    303\u001b[0m \u001b[43m                   \u001b[49m\u001b[43mwrite_logfile\u001b[49m\u001b[38;5;241;43m=\u001b[39;49m\u001b[43mwrite_logfile\u001b[49m\u001b[43m,\u001b[49m\n\u001b[1;32m    304\u001b[0m \u001b[43m                   \u001b[49m\u001b[43maudiofile\u001b[49m\u001b[38;5;241;43m=\u001b[39;49m\u001b[43maudiofile\u001b[49m\u001b[43m,\u001b[49m\n\u001b[1;32m    305\u001b[0m \u001b[43m                   \u001b[49m\u001b[43mverbose\u001b[49m\u001b[38;5;241;43m=\u001b[39;49m\u001b[43mverbose\u001b[49m\u001b[43m,\u001b[49m\u001b[43m \u001b[49m\u001b[43mthreads\u001b[49m\u001b[38;5;241;43m=\u001b[39;49m\u001b[43mthreads\u001b[49m\u001b[43m,\u001b[49m\n\u001b[1;32m    306\u001b[0m \u001b[43m                   \u001b[49m\u001b[43mffmpeg_params\u001b[49m\u001b[38;5;241;43m=\u001b[39;49m\u001b[43mffmpeg_params\u001b[49m\u001b[43m,\u001b[49m\n\u001b[1;32m    307\u001b[0m \u001b[43m                   \u001b[49m\u001b[43mlogger\u001b[49m\u001b[38;5;241;43m=\u001b[39;49m\u001b[43mlogger\u001b[49m\u001b[43m)\u001b[49m\n\u001b[1;32m    309\u001b[0m \u001b[38;5;28;01mif\u001b[39;00m remove_temp \u001b[38;5;129;01mand\u001b[39;00m make_audio:\n\u001b[1;32m    310\u001b[0m     \u001b[38;5;28;01mif\u001b[39;00m os\u001b[38;5;241m.\u001b[39mpath\u001b[38;5;241m.\u001b[39mexists(audiofile):\n",
      "File \u001b[0;32m~/.conda/envs/openmmlab/lib/python3.8/site-packages/moviepy/video/io/ffmpeg_writer.py:213\u001b[0m, in \u001b[0;36mffmpeg_write_video\u001b[0;34m(clip, filename, fps, codec, bitrate, preset, withmask, write_logfile, audiofile, verbose, threads, ffmpeg_params, logger)\u001b[0m\n\u001b[1;32m    211\u001b[0m     logfile \u001b[38;5;241m=\u001b[39m \u001b[38;5;28;01mNone\u001b[39;00m\n\u001b[1;32m    212\u001b[0m logger(message\u001b[38;5;241m=\u001b[39m\u001b[38;5;124m'\u001b[39m\u001b[38;5;124mMoviepy - Writing video \u001b[39m\u001b[38;5;132;01m%s\u001b[39;00m\u001b[38;5;130;01m\\n\u001b[39;00m\u001b[38;5;124m'\u001b[39m \u001b[38;5;241m%\u001b[39m filename)\n\u001b[0;32m--> 213\u001b[0m \u001b[38;5;28;01mwith\u001b[39;00m \u001b[43mFFMPEG_VideoWriter\u001b[49m\u001b[43m(\u001b[49m\u001b[43mfilename\u001b[49m\u001b[43m,\u001b[49m\u001b[43m \u001b[49m\u001b[43mclip\u001b[49m\u001b[38;5;241;43m.\u001b[39;49m\u001b[43msize\u001b[49m\u001b[43m,\u001b[49m\u001b[43m \u001b[49m\u001b[43mfps\u001b[49m\u001b[43m,\u001b[49m\u001b[43m \u001b[49m\u001b[43mcodec\u001b[49m\u001b[43m \u001b[49m\u001b[38;5;241;43m=\u001b[39;49m\u001b[43m \u001b[49m\u001b[43mcodec\u001b[49m\u001b[43m,\u001b[49m\n\u001b[1;32m    214\u001b[0m \u001b[43m                            \u001b[49m\u001b[43mpreset\u001b[49m\u001b[38;5;241;43m=\u001b[39;49m\u001b[43mpreset\u001b[49m\u001b[43m,\u001b[49m\u001b[43m \u001b[49m\u001b[43mbitrate\u001b[49m\u001b[38;5;241;43m=\u001b[39;49m\u001b[43mbitrate\u001b[49m\u001b[43m,\u001b[49m\u001b[43m \u001b[49m\u001b[43mlogfile\u001b[49m\u001b[38;5;241;43m=\u001b[39;49m\u001b[43mlogfile\u001b[49m\u001b[43m,\u001b[49m\n\u001b[1;32m    215\u001b[0m \u001b[43m                            \u001b[49m\u001b[43maudiofile\u001b[49m\u001b[38;5;241;43m=\u001b[39;49m\u001b[43maudiofile\u001b[49m\u001b[43m,\u001b[49m\u001b[43m \u001b[49m\u001b[43mthreads\u001b[49m\u001b[38;5;241;43m=\u001b[39;49m\u001b[43mthreads\u001b[49m\u001b[43m,\u001b[49m\n\u001b[1;32m    216\u001b[0m \u001b[43m                            \u001b[49m\u001b[43mffmpeg_params\u001b[49m\u001b[38;5;241;43m=\u001b[39;49m\u001b[43mffmpeg_params\u001b[49m\u001b[43m)\u001b[49m \u001b[38;5;28;01mas\u001b[39;00m writer:\n\u001b[1;32m    218\u001b[0m     nframes \u001b[38;5;241m=\u001b[39m \u001b[38;5;28mint\u001b[39m(clip\u001b[38;5;241m.\u001b[39mduration\u001b[38;5;241m*\u001b[39mfps)\n\u001b[1;32m    220\u001b[0m     \u001b[38;5;28;01mfor\u001b[39;00m t,frame \u001b[38;5;129;01min\u001b[39;00m clip\u001b[38;5;241m.\u001b[39miter_frames(logger\u001b[38;5;241m=\u001b[39mlogger, with_times\u001b[38;5;241m=\u001b[39m\u001b[38;5;28;01mTrue\u001b[39;00m,\n\u001b[1;32m    221\u001b[0m                                     fps\u001b[38;5;241m=\u001b[39mfps, dtype\u001b[38;5;241m=\u001b[39m\u001b[38;5;124m\"\u001b[39m\u001b[38;5;124muint8\u001b[39m\u001b[38;5;124m\"\u001b[39m):\n",
      "File \u001b[0;32m~/.conda/envs/openmmlab/lib/python3.8/site-packages/moviepy/video/io/ffmpeg_writer.py:88\u001b[0m, in \u001b[0;36mFFMPEG_VideoWriter.__init__\u001b[0;34m(self, filename, size, fps, codec, audiofile, preset, bitrate, withmask, logfile, threads, ffmpeg_params)\u001b[0m\n\u001b[1;32m     77\u001b[0m \u001b[38;5;28mself\u001b[39m\u001b[38;5;241m.\u001b[39mext \u001b[38;5;241m=\u001b[39m \u001b[38;5;28mself\u001b[39m\u001b[38;5;241m.\u001b[39mfilename\u001b[38;5;241m.\u001b[39msplit(\u001b[38;5;124m\"\u001b[39m\u001b[38;5;124m.\u001b[39m\u001b[38;5;124m\"\u001b[39m)[\u001b[38;5;241m-\u001b[39m\u001b[38;5;241m1\u001b[39m]\n\u001b[1;32m     79\u001b[0m \u001b[38;5;66;03m# order is important\u001b[39;00m\n\u001b[1;32m     80\u001b[0m cmd \u001b[38;5;241m=\u001b[39m [\n\u001b[1;32m     81\u001b[0m     get_setting(\u001b[38;5;124m\"\u001b[39m\u001b[38;5;124mFFMPEG_BINARY\u001b[39m\u001b[38;5;124m\"\u001b[39m),\n\u001b[1;32m     82\u001b[0m     \u001b[38;5;124m'\u001b[39m\u001b[38;5;124m-y\u001b[39m\u001b[38;5;124m'\u001b[39m,\n\u001b[1;32m     83\u001b[0m     \u001b[38;5;124m'\u001b[39m\u001b[38;5;124m-loglevel\u001b[39m\u001b[38;5;124m'\u001b[39m, \u001b[38;5;124m'\u001b[39m\u001b[38;5;124merror\u001b[39m\u001b[38;5;124m'\u001b[39m \u001b[38;5;28;01mif\u001b[39;00m logfile \u001b[38;5;241m==\u001b[39m sp\u001b[38;5;241m.\u001b[39mPIPE \u001b[38;5;28;01melse\u001b[39;00m \u001b[38;5;124m'\u001b[39m\u001b[38;5;124minfo\u001b[39m\u001b[38;5;124m'\u001b[39m,\n\u001b[1;32m     84\u001b[0m     \u001b[38;5;124m'\u001b[39m\u001b[38;5;124m-f\u001b[39m\u001b[38;5;124m'\u001b[39m, \u001b[38;5;124m'\u001b[39m\u001b[38;5;124mrawvideo\u001b[39m\u001b[38;5;124m'\u001b[39m,\n\u001b[1;32m     85\u001b[0m     \u001b[38;5;124m'\u001b[39m\u001b[38;5;124m-vcodec\u001b[39m\u001b[38;5;124m'\u001b[39m, \u001b[38;5;124m'\u001b[39m\u001b[38;5;124mrawvideo\u001b[39m\u001b[38;5;124m'\u001b[39m,\n\u001b[1;32m     86\u001b[0m     \u001b[38;5;124m'\u001b[39m\u001b[38;5;124m-s\u001b[39m\u001b[38;5;124m'\u001b[39m, \u001b[38;5;124m'\u001b[39m\u001b[38;5;132;01m%d\u001b[39;00m\u001b[38;5;124mx\u001b[39m\u001b[38;5;132;01m%d\u001b[39;00m\u001b[38;5;124m'\u001b[39m \u001b[38;5;241m%\u001b[39m (size[\u001b[38;5;241m0\u001b[39m], size[\u001b[38;5;241m1\u001b[39m]),\n\u001b[1;32m     87\u001b[0m     \u001b[38;5;124m'\u001b[39m\u001b[38;5;124m-pix_fmt\u001b[39m\u001b[38;5;124m'\u001b[39m, \u001b[38;5;124m'\u001b[39m\u001b[38;5;124mrgba\u001b[39m\u001b[38;5;124m'\u001b[39m \u001b[38;5;28;01mif\u001b[39;00m withmask \u001b[38;5;28;01melse\u001b[39;00m \u001b[38;5;124m'\u001b[39m\u001b[38;5;124mrgb24\u001b[39m\u001b[38;5;124m'\u001b[39m,\n\u001b[0;32m---> 88\u001b[0m     \u001b[38;5;124m'\u001b[39m\u001b[38;5;124m-r\u001b[39m\u001b[38;5;124m'\u001b[39m, \u001b[38;5;124;43m'\u001b[39;49m\u001b[38;5;132;43;01m%.02f\u001b[39;49;00m\u001b[38;5;124;43m'\u001b[39;49m\u001b[43m \u001b[49m\u001b[38;5;241;43m%\u001b[39;49m\u001b[43m \u001b[49m\u001b[43mfps\u001b[49m,\n\u001b[1;32m     89\u001b[0m     \u001b[38;5;124m'\u001b[39m\u001b[38;5;124m-an\u001b[39m\u001b[38;5;124m'\u001b[39m, \u001b[38;5;124m'\u001b[39m\u001b[38;5;124m-i\u001b[39m\u001b[38;5;124m'\u001b[39m, \u001b[38;5;124m'\u001b[39m\u001b[38;5;124m-\u001b[39m\u001b[38;5;124m'\u001b[39m\n\u001b[1;32m     90\u001b[0m ]\n\u001b[1;32m     91\u001b[0m \u001b[38;5;28;01mif\u001b[39;00m audiofile \u001b[38;5;129;01mis\u001b[39;00m \u001b[38;5;129;01mnot\u001b[39;00m \u001b[38;5;28;01mNone\u001b[39;00m:\n\u001b[1;32m     92\u001b[0m     cmd\u001b[38;5;241m.\u001b[39mextend([\n\u001b[1;32m     93\u001b[0m         \u001b[38;5;124m'\u001b[39m\u001b[38;5;124m-i\u001b[39m\u001b[38;5;124m'\u001b[39m, audiofile,\n\u001b[1;32m     94\u001b[0m         \u001b[38;5;124m'\u001b[39m\u001b[38;5;124m-acodec\u001b[39m\u001b[38;5;124m'\u001b[39m, \u001b[38;5;124m'\u001b[39m\u001b[38;5;124mcopy\u001b[39m\u001b[38;5;124m'\u001b[39m\n\u001b[1;32m     95\u001b[0m     ])\n",
      "\u001b[0;31mTypeError\u001b[0m: must be real number, not NoneType"
     ]
    }
   ],
   "source": [
    "from moviepy.video.io.VideoFileClip import VideoFileClip\n",
    "\n",
    "input_video_path = '/home/nele_pauline_suffo/ProcessedData/videos_superannotate/147984.MP4'\n",
    "output_video_path = '/home/nele_pauline_suffo/ProcessedData/videos_superannotate/147984_cut.MP4'\n",
    "t1 = 0.5\n",
    "t2 = 10.5\n",
    "\n",
    "with VideoFileClip(input_video_path) as video:\n",
    "    new = video.subclip(t1, t2)\n",
    "    new.write_videofile(output_video_path, audio_codec='aac')"
   ]
  },
  {
   "cell_type": "code",
   "execution_count": 67,
   "metadata": {},
   "outputs": [
    {
     "name": "stdout",
     "output_type": "stream",
     "text": [
      "Processing segment 0.0-606.639367 of video 147984, label: Playing_with_Object, output: /home/nele_pauline_suffo/ProcessedData/videos_superannotate/feature_split/147984_Playing_with_Object.mp4\n",
      "Attempting to load video: /home/nele_pauline_suffo/ProcessedData/videos_superannotate//147984.MP4\n",
      "Error loading or processing video /home/nele_pauline_suffo/ProcessedData/videos_superannotate//147984.MP4: ffmpeg error (see stderr output for detail)\n",
      "Saved segment 0.0-606.639367 of video 147984 as /home/nele_pauline_suffo/ProcessedData/videos_superannotate/feature_split/147984_Playing_with_Object.mp4\n",
      "Processing segment 71.043709-632.066262 of video 183537, label: Playing_with_Object, output: /home/nele_pauline_suffo/ProcessedData/videos_superannotate/feature_split/183537_Playing_with_Object.mp4\n",
      "Attempting to load video: /home/nele_pauline_suffo/ProcessedData/videos_superannotate//183537.MP4\n",
      "Error loading or processing video /home/nele_pauline_suffo/ProcessedData/videos_superannotate//183537.MP4: ffmpeg error (see stderr output for detail)\n",
      "Saved segment 71.043709-632.066262 of video 183537 as /home/nele_pauline_suffo/ProcessedData/videos_superannotate/feature_split/183537_Playing_with_Object.mp4\n",
      "Processing segment 665.281219-811.122892 of video 183537, label: Playing_with_Object, output: /home/nele_pauline_suffo/ProcessedData/videos_superannotate/feature_split/183537_Playing_with_Object.mp4\n",
      "Attempting to load video: /home/nele_pauline_suffo/ProcessedData/videos_superannotate//183537.MP4\n"
     ]
    },
    {
     "name": "stderr",
     "output_type": "stream",
     "text": [
      "ffmpeg version 5.1.2 Copyright (c) 2000-2022 the FFmpeg developers\n",
      "  built with gcc 11.3.0 (conda-forge gcc 11.3.0-19)\n",
      "  configuration: --prefix=/home/conda/feedstock_root/build_artifacts/ffmpeg_1674566204550/_h_env_placehold_placehold_placehold_placehold_placehold_placehold_placehold_placehold_placehold_placehold_placehold_placehold_placehold_placehold_placehold_placehold_placehold_placehold_plac --cc=/home/conda/feedstock_root/build_artifacts/ffmpeg_1674566204550/_build_env/bin/x86_64-conda-linux-gnu-cc --cxx=/home/conda/feedstock_root/build_artifacts/ffmpeg_1674566204550/_build_env/bin/x86_64-conda-linux-gnu-c++ --nm=/home/conda/feedstock_root/build_artifacts/ffmpeg_1674566204550/_build_env/bin/x86_64-conda-linux-gnu-nm --ar=/home/conda/feedstock_root/build_artifacts/ffmpeg_1674566204550/_build_env/bin/x86_64-conda-linux-gnu-ar --disable-doc --disable-openssl --enable-demuxer=dash --enable-hardcoded-tables --enable-libfreetype --enable-libfontconfig --enable-libopenh264 --enable-gnutls --enable-libmp3lame --enable-libvpx --enable-pthreads --enable-vaapi --enable-gpl --enable-libx264 --enable-libx265 --enable-libaom --enable-libsvtav1 --enable-libxml2 --enable-pic --enable-shared --disable-static --enable-version3 --enable-zlib --enable-libopus --pkg-config=/home/conda/feedstock_root/build_artifacts/ffmpeg_1674566204550/_build_env/bin/pkg-config\n",
      "  libavutil      57. 28.100 / 57. 28.100\n",
      "  libavcodec     59. 37.100 / 59. 37.100\n",
      "  libavformat    59. 27.100 / 59. 27.100\n",
      "  libavdevice    59.  7.100 / 59.  7.100\n",
      "  libavfilter     8. 44.100 /  8. 44.100\n",
      "  libswscale      6.  7.100 /  6.  7.100\n",
      "  libswresample   4.  7.100 /  4.  7.100\n",
      "  libpostproc    56.  6.100 / 56.  6.100\n",
      "[mov,mp4,m4a,3gp,3g2,mj2 @ 0x55df60052e80] unsupported color_parameter_type aclc\n",
      "Input #0, mov,mp4,m4a,3gp,3g2,mj2, from '/home/nele_pauline_suffo/ProcessedData/videos_superannotate//147984.MP4':\n",
      "  Metadata:\n",
      "    major_brand     : avc1\n",
      "    minor_version   : 0\n",
      "    compatible_brands: avc1isom\n",
      "    creation_time   : 2024-06-12T20:48:39.000000Z\n",
      "  Duration: 00:10:06.64, start: 0.000000, bitrate: 7750 kb/s\n",
      "  Stream #0:0[0x1](eng): Video: h264 (Main) (avc1 / 0x31637661), yuvj420p(pc, progressive), 2304x1296 [SAR 1:1 DAR 16:9], 7552 kb/s, 29.97 fps, 29.97 tbr, 30k tbn (default)\n",
      "    Metadata:\n",
      "      creation_time   : 2024-06-12T20:48:39.000000Z\n",
      "      handler_name    :  Ambarella AVC\n",
      "      vendor_id       : [0][0][0][0]\n",
      "      encoder         : Ambarella AVC encoder\n",
      "  Stream #0:1[0x2](eng): Audio: aac (LC) (mp4a / 0x6134706D), 48000 Hz, mono, fltp, 63 kb/s (default)\n",
      "    Metadata:\n",
      "      creation_time   : 2024-06-12T20:48:39.000000Z\n",
      "      handler_name    :  Ambarella AAC\n",
      "      vendor_id       : [0][0][0][0]\n",
      "  Stream #0:2[0x3](eng): Subtitle: mov_text (text / 0x74786574), 10 kb/s (default)\n",
      "    Metadata:\n",
      "      creation_time   : 2024-06-12T20:48:39.000000Z\n",
      "      handler_name    :  Ambarella EXT\n",
      "Invalid encoder type 'libx264'\n",
      "ffmpeg version 5.1.2 Copyright (c) 2000-2022 the FFmpeg developers\n",
      "  built with gcc 11.3.0 (conda-forge gcc 11.3.0-19)\n",
      "  configuration: --prefix=/home/conda/feedstock_root/build_artifacts/ffmpeg_1674566204550/_h_env_placehold_placehold_placehold_placehold_placehold_placehold_placehold_placehold_placehold_placehold_placehold_placehold_placehold_placehold_placehold_placehold_placehold_placehold_plac --cc=/home/conda/feedstock_root/build_artifacts/ffmpeg_1674566204550/_build_env/bin/x86_64-conda-linux-gnu-cc --cxx=/home/conda/feedstock_root/build_artifacts/ffmpeg_1674566204550/_build_env/bin/x86_64-conda-linux-gnu-c++ --nm=/home/conda/feedstock_root/build_artifacts/ffmpeg_1674566204550/_build_env/bin/x86_64-conda-linux-gnu-nm --ar=/home/conda/feedstock_root/build_artifacts/ffmpeg_1674566204550/_build_env/bin/x86_64-conda-linux-gnu-ar --disable-doc --disable-openssl --enable-demuxer=dash --enable-hardcoded-tables --enable-libfreetype --enable-libfontconfig --enable-libopenh264 --enable-gnutls --enable-libmp3lame --enable-libvpx --enable-pthreads --enable-vaapi --enable-gpl --enable-libx264 --enable-libx265 --enable-libaom --enable-libsvtav1 --enable-libxml2 --enable-pic --enable-shared --disable-static --enable-version3 --enable-zlib --enable-libopus --pkg-config=/home/conda/feedstock_root/build_artifacts/ffmpeg_1674566204550/_build_env/bin/pkg-config\n",
      "  libavutil      57. 28.100 / 57. 28.100\n",
      "  libavcodec     59. 37.100 / 59. 37.100\n",
      "  libavformat    59. 27.100 / 59. 27.100\n",
      "  libavdevice    59.  7.100 / 59.  7.100\n",
      "  libavfilter     8. 44.100 /  8. 44.100\n",
      "  libswscale      6.  7.100 /  6.  7.100\n",
      "  libswresample   4.  7.100 /  4.  7.100\n",
      "  libpostproc    56.  6.100 / 56.  6.100\n",
      "[mov,mp4,m4a,3gp,3g2,mj2 @ 0x5588e77e5e80] unsupported color_parameter_type aclc\n",
      "Input #0, mov,mp4,m4a,3gp,3g2,mj2, from '/home/nele_pauline_suffo/ProcessedData/videos_superannotate//183537.MP4':\n",
      "  Metadata:\n",
      "    major_brand     : avc1\n",
      "    minor_version   : 0\n",
      "    compatible_brands: avc1isom\n",
      "    creation_time   : 2024-04-18T15:59:02.000000Z\n",
      "  Duration: 00:29:19.06, start: 0.000000, bitrate: 7731 kb/s\n",
      "  Stream #0:0[0x1](eng): Video: h264 (Main) (avc1 / 0x31637661), yuvj420p(pc, progressive), 2304x1296 [SAR 1:1 DAR 16:9], 7607 kb/s, 29.97 fps, 29.97 tbr, 30k tbn (default)\n",
      "    Metadata:\n",
      "      creation_time   : 2024-04-18T15:59:02.000000Z\n",
      "      handler_name    :  Ambarella AVC\n",
      "      vendor_id       : [0][0][0][0]\n",
      "      encoder         : Ambarella AVC encoder\n",
      "  Stream #0:1[0x2](eng): Audio: aac (LC) (mp4a / 0x6134706D), 48000 Hz, mono, fltp, 64 kb/s (default)\n",
      "    Metadata:\n",
      "      creation_time   : 2024-04-18T15:59:02.000000Z\n",
      "      handler_name    :  Ambarella AAC\n",
      "      vendor_id       : [0][0][0][0]\n",
      "  Stream #0:2[0x3](eng): Subtitle: mov_text (text / 0x74786574), 10 kb/s (default)\n",
      "    Metadata:\n",
      "      creation_time   : 2024-04-18T15:59:02.000000Z\n",
      "      handler_name    :  Ambarella EXT\n",
      "Invalid encoder type 'libx264'\n",
      "ffmpeg version 5.1.2 Copyright (c) 2000-2022 the FFmpeg developers\n",
      "  built with gcc 11.3.0 (conda-forge gcc 11.3.0-19)\n",
      "  configuration: --prefix=/home/conda/feedstock_root/build_artifacts/ffmpeg_1674566204550/_h_env_placehold_placehold_placehold_placehold_placehold_placehold_placehold_placehold_placehold_placehold_placehold_placehold_placehold_placehold_placehold_placehold_placehold_placehold_plac --cc=/home/conda/feedstock_root/build_artifacts/ffmpeg_1674566204550/_build_env/bin/x86_64-conda-linux-gnu-cc --cxx=/home/conda/feedstock_root/build_artifacts/ffmpeg_1674566204550/_build_env/bin/x86_64-conda-linux-gnu-c++ --nm=/home/conda/feedstock_root/build_artifacts/ffmpeg_1674566204550/_build_env/bin/x86_64-conda-linux-gnu-nm --ar=/home/conda/feedstock_root/build_artifacts/ffmpeg_1674566204550/_build_env/bin/x86_64-conda-linux-gnu-ar --disable-doc --disable-openssl --enable-demuxer=dash --enable-hardcoded-tables --enable-libfreetype --enable-libfontconfig --enable-libopenh264 --enable-gnutls --enable-libmp3lame --enable-libvpx --enable-pthreads --enable-vaapi --enable-gpl --enable-libx264 --enable-libx265 --enable-libaom --enable-libsvtav1 --enable-libxml2 --enable-pic --enable-shared --disable-static --enable-version3 --enable-zlib --enable-libopus --pkg-config=/home/conda/feedstock_root/build_artifacts/ffmpeg_1674566204550/_build_env/bin/pkg-config\n",
      "  libavutil      57. 28.100 / 57. 28.100\n",
      "  libavcodec     59. 37.100 / 59. 37.100\n",
      "  libavformat    59. 27.100 / 59. 27.100\n",
      "  libavdevice    59.  7.100 / 59.  7.100\n",
      "  libavfilter     8. 44.100 /  8. 44.100\n",
      "  libswscale      6.  7.100 /  6.  7.100\n",
      "  libswresample   4.  7.100 /  4.  7.100\n",
      "  libpostproc    56.  6.100 / 56.  6.100\n",
      "[mov,mp4,m4a,3gp,3g2,mj2 @ 0x55e9e10d7e80] unsupported color_parameter_type aclc\n",
      "Input #0, mov,mp4,m4a,3gp,3g2,mj2, from '/home/nele_pauline_suffo/ProcessedData/videos_superannotate//183537.MP4':\n",
      "  Metadata:\n",
      "    major_brand     : avc1\n",
      "    minor_version   : 0\n",
      "    compatible_brands: avc1isom\n",
      "    creation_time   : 2024-04-18T15:59:02.000000Z\n",
      "  Duration: 00:29:19.06, start: 0.000000, bitrate: 7731 kb/s\n",
      "  Stream #0:0[0x1](eng): Video: h264 (Main) (avc1 / 0x31637661), yuvj420p(pc, progressive), 2304x1296 [SAR 1:1 DAR 16:9], 7607 kb/s, 29.97 fps, 29.97 tbr, 30k tbn (default)\n",
      "    Metadata:\n",
      "      creation_time   : 2024-04-18T15:59:02.000000Z\n",
      "      handler_name    :  Ambarella AVC\n",
      "      vendor_id       : [0][0][0][0]\n",
      "      encoder         : Ambarella AVC encoder\n",
      "  Stream #0:1[0x2](eng): Audio: aac (LC) (mp4a / 0x6134706D), 48000 Hz, mono, fltp, 64 kb/s (default)\n",
      "    Metadata:\n",
      "      creation_time   : 2024-04-18T15:59:02.000000Z\n",
      "      handler_name    :  Ambarella AAC\n",
      "      vendor_id       : [0][0][0][0]\n",
      "  Stream #0:2[0x3](eng): Subtitle: mov_text (text / 0x74786574), 10 kb/s (default)\n",
      "    Metadata:\n",
      "      creation_time   : 2024-04-18T15:59:02.000000Z\n",
      "      handler_name    :  Ambarella EXT\n",
      "Invalid encoder type 'libx264'\n",
      "ffmpeg version 5.1.2 Copyright (c) 2000-2022 the FFmpeg developers\n",
      "  built with gcc 11.3.0 (conda-forge gcc 11.3.0-19)\n",
      "  configuration: --prefix=/home/conda/feedstock_root/build_artifacts/ffmpeg_1674566204550/_h_env_placehold_placehold_placehold_placehold_placehold_placehold_placehold_placehold_placehold_placehold_placehold_placehold_placehold_placehold_placehold_placehold_placehold_placehold_plac --cc=/home/conda/feedstock_root/build_artifacts/ffmpeg_1674566204550/_build_env/bin/x86_64-conda-linux-gnu-cc --cxx=/home/conda/feedstock_root/build_artifacts/ffmpeg_1674566204550/_build_env/bin/x86_64-conda-linux-gnu-c++ --nm=/home/conda/feedstock_root/build_artifacts/ffmpeg_1674566204550/_build_env/bin/x86_64-conda-linux-gnu-nm --ar=/home/conda/feedstock_root/build_artifacts/ffmpeg_1674566204550/_build_env/bin/x86_64-conda-linux-gnu-ar --disable-doc --disable-openssl --enable-demuxer=dash --enable-hardcoded-tables --enable-libfreetype --enable-libfontconfig --enable-libopenh264 --enable-gnutls --enable-libmp3lame --enable-libvpx --enable-pthreads --enable-vaapi --enable-gpl --enable-libx264 --enable-libx265 --enable-libaom --enable-libsvtav1 --enable-libxml2 --enable-pic --enable-shared --disable-static --enable-version3 --enable-zlib --enable-libopus --pkg-config=/home/conda/feedstock_root/build_artifacts/ffmpeg_1674566204550/_build_env/bin/pkg-config\n",
      "  libavutil      57. 28.100 / 57. 28.100\n",
      "  libavcodec     59. 37.100 / 59. 37.100\n",
      "  libavformat    59. 27.100 / 59. 27.100\n",
      "  libavdevice    59.  7.100 / 59.  7.100\n",
      "  libavfilter     8. 44.100 /  8. 44.100\n",
      "  libswscale      6.  7.100 /  6.  7.100\n",
      "  libswresample   4.  7.100 /  4.  7.100\n",
      "  libpostproc    56.  6.100 / 56.  6.100\n",
      "[mov,mp4,m4a,3gp,3g2,mj2 @ 0x5594c49b1e80] unsupported color_parameter_type aclc\n",
      "Input #0, mov,mp4,m4a,3gp,3g2,mj2, from '/home/nele_pauline_suffo/ProcessedData/videos_superannotate//183537.MP4':\n",
      "  Metadata:\n",
      "    major_brand     : avc1\n",
      "    minor_version   : 0\n",
      "    compatible_brands: avc1isom\n",
      "    creation_time   : 2024-04-18T15:59:02.000000Z\n",
      "  Duration: 00:29:19.06, start: 0.000000, bitrate: 7731 kb/s\n",
      "  Stream #0:0[0x1](eng): Video: h264 (Main) (avc1 / 0x31637661), yuvj420p(pc, progressive), 2304x1296 [SAR 1:1 DAR 16:9], 7607 kb/s, 29.97 fps, 29.97 tbr, 30k tbn (default)\n",
      "    Metadata:\n",
      "      creation_time   : 2024-04-18T15:59:02.000000Z\n",
      "      handler_name    :  Ambarella AVC\n",
      "      vendor_id       : [0][0][0][0]\n",
      "      encoder         : Ambarella AVC encoder\n",
      "  Stream #0:1[0x2](eng): Audio: aac (LC) (mp4a / 0x6134706D), 48000 Hz, mono, fltp, 64 kb/s (default)\n",
      "    Metadata:\n",
      "      creation_time   : 2024-04-18T15:59:02.000000Z\n",
      "      handler_name    :  Ambarella AAC\n",
      "      vendor_id       : [0][0][0][0]\n",
      "  Stream #0:2[0x3](eng): Subtitle: mov_text (text / 0x74786574), 10 kb/s (default)\n",
      "    Metadata:\n",
      "      creation_time   : 2024-04-18T15:59:02.000000Z\n",
      "      handler_name    :  Ambarella EXT\n",
      "Invalid encoder type 'libx264'\n",
      "ffmpeg version 5.1.2 Copyright (c) 2000-2022 the FFmpeg developers\n",
      "  built with gcc 11.3.0 (conda-forge gcc 11.3.0-19)\n",
      "  configuration: --prefix=/home/conda/feedstock_root/build_artifacts/ffmpeg_1674566204550/_h_env_placehold_placehold_placehold_placehold_placehold_placehold_placehold_placehold_placehold_placehold_placehold_placehold_placehold_placehold_placehold_placehold_placehold_placehold_plac --cc=/home/conda/feedstock_root/build_artifacts/ffmpeg_1674566204550/_build_env/bin/x86_64-conda-linux-gnu-cc --cxx=/home/conda/feedstock_root/build_artifacts/ffmpeg_1674566204550/_build_env/bin/x86_64-conda-linux-gnu-c++ --nm=/home/conda/feedstock_root/build_artifacts/ffmpeg_1674566204550/_build_env/bin/x86_64-conda-linux-gnu-nm --ar=/home/conda/feedstock_root/build_artifacts/ffmpeg_1674566204550/_build_env/bin/x86_64-conda-linux-gnu-ar --disable-doc --disable-openssl --enable-demuxer=dash --enable-hardcoded-tables --enable-libfreetype --enable-libfontconfig --enable-libopenh264 --enable-gnutls --enable-libmp3lame --enable-libvpx --enable-pthreads --enable-vaapi --enable-gpl --enable-libx264 --enable-libx265 --enable-libaom --enable-libsvtav1 --enable-libxml2 --enable-pic --enable-shared --disable-static --enable-version3 --enable-zlib --enable-libopus --pkg-config=/home/conda/feedstock_root/build_artifacts/ffmpeg_1674566204550/_build_env/bin/pkg-config\n",
      "  libavutil      57. 28.100 / 57. 28.100\n",
      "  libavcodec     59. 37.100 / 59. 37.100\n",
      "  libavformat    59. 27.100 / 59. 27.100\n",
      "  libavdevice    59.  7.100 / 59.  7.100\n",
      "  libavfilter     8. 44.100 /  8. 44.100\n",
      "  libswscale      6.  7.100 /  6.  7.100\n",
      "  libswresample   4.  7.100 /  4.  7.100\n",
      "  libpostproc    56.  6.100 / 56.  6.100\n",
      "[mov,mp4,m4a,3gp,3g2,mj2 @ 0x563921b39e80] unsupported color_parameter_type aclc\n",
      "Input #0, mov,mp4,m4a,3gp,3g2,mj2, from '/home/nele_pauline_suffo/ProcessedData/videos_superannotate//183537.MP4':\n",
      "  Metadata:\n",
      "    major_brand     : avc1\n",
      "    minor_version   : 0\n",
      "    compatible_brands: avc1isom\n",
      "    creation_time   : 2024-04-18T15:59:02.000000Z\n",
      "  Duration: 00:29:19.06, start: 0.000000, bitrate: 7731 kb/s\n",
      "  Stream #0:0[0x1](eng): Video: h264 (Main) (avc1 / 0x31637661), yuvj420p(pc, progressive), 2304x1296 [SAR 1:1 DAR 16:9], 7607 kb/s, 29.97 fps, 29.97 tbr, 30k tbn (default)\n",
      "    Metadata:\n",
      "      creation_time   : 2024-04-18T15:59:02.000000Z\n",
      "      handler_name    :  Ambarella AVC\n",
      "      vendor_id       : [0][0][0][0]\n",
      "      encoder         : Ambarella AVC encoder\n",
      "  Stream #0:1[0x2](eng): Audio: aac (LC) (mp4a / 0x6134706D), 48000 Hz, mono, fltp, 64 kb/s (default)\n",
      "    Metadata:\n",
      "      creation_time   : 2024-04-18T15:59:02.000000Z\n",
      "      handler_name    :  Ambarella AAC\n",
      "      vendor_id       : [0][0][0][0]\n",
      "  Stream #0:2[0x3](eng): Subtitle: mov_text (text / 0x74786574), 10 kb/s (default)\n",
      "    Metadata:\n",
      "      creation_time   : 2024-04-18T15:59:02.000000Z\n",
      "      handler_name    :  Ambarella EXT\n",
      "Invalid encoder type 'libx264'\n",
      "ffmpeg version 5.1.2 Copyright (c) 2000-2022 the FFmpeg developers\n",
      "  built with gcc 11.3.0 (conda-forge gcc 11.3.0-19)\n",
      "  configuration: --prefix=/home/conda/feedstock_root/build_artifacts/ffmpeg_1674566204550/_h_env_placehold_placehold_placehold_placehold_placehold_placehold_placehold_placehold_placehold_placehold_placehold_placehold_placehold_placehold_placehold_placehold_placehold_placehold_plac --cc=/home/conda/feedstock_root/build_artifacts/ffmpeg_1674566204550/_build_env/bin/x86_64-conda-linux-gnu-cc --cxx=/home/conda/feedstock_root/build_artifacts/ffmpeg_1674566204550/_build_env/bin/x86_64-conda-linux-gnu-c++ --nm=/home/conda/feedstock_root/build_artifacts/ffmpeg_1674566204550/_build_env/bin/x86_64-conda-linux-gnu-nm --ar=/home/conda/feedstock_root/build_artifacts/ffmpeg_1674566204550/_build_env/bin/x86_64-conda-linux-gnu-ar --disable-doc --disable-openssl --enable-demuxer=dash --enable-hardcoded-tables --enable-libfreetype --enable-libfontconfig --enable-libopenh264 --enable-gnutls --enable-libmp3lame --enable-libvpx --enable-pthreads --enable-vaapi --enable-gpl --enable-libx264 --enable-libx265 --enable-libaom --enable-libsvtav1 --enable-libxml2 --enable-pic --enable-shared --disable-static --enable-version3 --enable-zlib --enable-libopus --pkg-config=/home/conda/feedstock_root/build_artifacts/ffmpeg_1674566204550/_build_env/bin/pkg-config\n",
      "  libavutil      57. 28.100 / 57. 28.100\n",
      "  libavcodec     59. 37.100 / 59. 37.100\n",
      "  libavformat    59. 27.100 / 59. 27.100\n",
      "  libavdevice    59.  7.100 / 59.  7.100\n",
      "  libavfilter     8. 44.100 /  8. 44.100\n",
      "  libswscale      6.  7.100 /  6.  7.100\n",
      "  libswresample   4.  7.100 /  4.  7.100\n",
      "  libpostproc    56.  6.100 / 56.  6.100\n"
     ]
    },
    {
     "name": "stdout",
     "output_type": "stream",
     "text": [
      "Error loading or processing video /home/nele_pauline_suffo/ProcessedData/videos_superannotate//183537.MP4: ffmpeg error (see stderr output for detail)\n",
      "Saved segment 665.281219-811.122892 of video 183537 as /home/nele_pauline_suffo/ProcessedData/videos_superannotate/feature_split/183537_Playing_with_Object.mp4\n",
      "Processing segment 1257.072451-1259.662183 of video 183537, label: Playing_with_Object, output: /home/nele_pauline_suffo/ProcessedData/videos_superannotate/feature_split/183537_Playing_with_Object.mp4\n",
      "Attempting to load video: /home/nele_pauline_suffo/ProcessedData/videos_superannotate//183537.MP4\n",
      "Error loading or processing video /home/nele_pauline_suffo/ProcessedData/videos_superannotate//183537.MP4: ffmpeg error (see stderr output for detail)\n",
      "Saved segment 1257.072451-1259.662183 of video 183537 as /home/nele_pauline_suffo/ProcessedData/videos_superannotate/feature_split/183537_Playing_with_Object.mp4\n",
      "Processing segment 1332.110401-1346.907723 of video 183537, label: Playing_with_Object, output: /home/nele_pauline_suffo/ProcessedData/videos_superannotate/feature_split/183537_Playing_with_Object.mp4\n",
      "Attempting to load video: /home/nele_pauline_suffo/ProcessedData/videos_superannotate//183537.MP4\n",
      "Error loading or processing video /home/nele_pauline_suffo/ProcessedData/videos_superannotate//183537.MP4: ffmpeg error (see stderr output for detail)\n",
      "Saved segment 1332.110401-1346.907723 of video 183537 as /home/nele_pauline_suffo/ProcessedData/videos_superannotate/feature_split/183537_Playing_with_Object.mp4\n",
      "Processing segment 26.551535-699.76724 of video 189224, label: Drawing, output: /home/nele_pauline_suffo/ProcessedData/videos_superannotate/feature_split/189224_Drawing.mp4\n",
      "Attempting to load video: /home/nele_pauline_suffo/ProcessedData/videos_superannotate//189224.MP4\n"
     ]
    },
    {
     "name": "stderr",
     "output_type": "stream",
     "text": [
      "[mov,mp4,m4a,3gp,3g2,mj2 @ 0x55c8d9070e80] unsupported color_parameter_type aclc\n",
      "Input #0, mov,mp4,m4a,3gp,3g2,mj2, from '/home/nele_pauline_suffo/ProcessedData/videos_superannotate//189224.MP4':\n",
      "  Metadata:\n",
      "    major_brand     : avc1\n",
      "    minor_version   : 0\n",
      "    compatible_brands: avc1isom\n",
      "    creation_time   : 2023-12-09T19:17:26.000000Z\n",
      "  Duration: 00:30:00.20, start: 0.000000, bitrate: 8020 kb/s\n",
      "  Stream #0:0[0x1](eng): Video: h264 (Main) (avc1 / 0x31637661), yuvj420p(pc, progressive), 2304x1296 [SAR 1:1 DAR 16:9], 7895 kb/s, 29.97 fps, 29.97 tbr, 30k tbn (default)\n",
      "    Metadata:\n",
      "      creation_time   : 2023-12-09T19:17:26.000000Z\n",
      "      handler_name    :  Ambarella AVC\n",
      "      vendor_id       : [0][0][0][0]\n",
      "      encoder         : Ambarella AVC encoder\n",
      "  Stream #0:1[0x2](eng): Audio: aac (LC) (mp4a / 0x6134706D), 48000 Hz, mono, fltp, 64 kb/s (default)\n",
      "    Metadata:\n",
      "      creation_time   : 2023-12-09T19:17:26.000000Z\n",
      "      handler_name    :  Ambarella AAC\n",
      "      vendor_id       : [0][0][0][0]\n",
      "  Stream #0:2[0x3](eng): Subtitle: mov_text (text / 0x74786574), 10 kb/s (default)\n",
      "    Metadata:\n",
      "      creation_time   : 2023-12-09T19:17:26.000000Z\n",
      "      handler_name    :  Ambarella EXT\n",
      "Invalid encoder type 'libx264'\n",
      "ffmpeg version 5.1.2 Copyright (c) 2000-2022 the FFmpeg developers\n",
      "  built with gcc 11.3.0 (conda-forge gcc 11.3.0-19)\n",
      "  configuration: --prefix=/home/conda/feedstock_root/build_artifacts/ffmpeg_1674566204550/_h_env_placehold_placehold_placehold_placehold_placehold_placehold_placehold_placehold_placehold_placehold_placehold_placehold_placehold_placehold_placehold_placehold_placehold_placehold_plac --cc=/home/conda/feedstock_root/build_artifacts/ffmpeg_1674566204550/_build_env/bin/x86_64-conda-linux-gnu-cc --cxx=/home/conda/feedstock_root/build_artifacts/ffmpeg_1674566204550/_build_env/bin/x86_64-conda-linux-gnu-c++ --nm=/home/conda/feedstock_root/build_artifacts/ffmpeg_1674566204550/_build_env/bin/x86_64-conda-linux-gnu-nm --ar=/home/conda/feedstock_root/build_artifacts/ffmpeg_1674566204550/_build_env/bin/x86_64-conda-linux-gnu-ar --disable-doc --disable-openssl --enable-demuxer=dash --enable-hardcoded-tables --enable-libfreetype --enable-libfontconfig --enable-libopenh264 --enable-gnutls --enable-libmp3lame --enable-libvpx --enable-pthreads --enable-vaapi --enable-gpl --enable-libx264 --enable-libx265 --enable-libaom --enable-libsvtav1 --enable-libxml2 --enable-pic --enable-shared --disable-static --enable-version3 --enable-zlib --enable-libopus --pkg-config=/home/conda/feedstock_root/build_artifacts/ffmpeg_1674566204550/_build_env/bin/pkg-config\n",
      "  libavutil      57. 28.100 / 57. 28.100\n",
      "  libavcodec     59. 37.100 / 59. 37.100\n",
      "  libavformat    59. 27.100 / 59. 27.100\n",
      "  libavdevice    59.  7.100 / 59.  7.100\n",
      "  libavfilter     8. 44.100 /  8. 44.100\n",
      "  libswscale      6.  7.100 /  6.  7.100\n",
      "  libswresample   4.  7.100 /  4.  7.100\n",
      "  libpostproc    56.  6.100 / 56.  6.100\n",
      "[mov,mp4,m4a,3gp,3g2,mj2 @ 0x5583733d4e80] unsupported color_parameter_type aclc\n"
     ]
    },
    {
     "name": "stdout",
     "output_type": "stream",
     "text": [
      "Error loading or processing video /home/nele_pauline_suffo/ProcessedData/videos_superannotate//189224.MP4: ffmpeg error (see stderr output for detail)\n",
      "Saved segment 26.551535-699.76724 of video 189224 as /home/nele_pauline_suffo/ProcessedData/videos_superannotate/feature_split/189224_Drawing.mp4\n",
      "Processing segment 26.551535-699.76724 of video 189224, label: Drawing, output: /home/nele_pauline_suffo/ProcessedData/videos_superannotate/feature_split/189224_Drawing.mp4\n",
      "Attempting to load video: /home/nele_pauline_suffo/ProcessedData/videos_superannotate//189224.MP4\n",
      "Error loading or processing video /home/nele_pauline_suffo/ProcessedData/videos_superannotate//189224.MP4: ffmpeg error (see stderr output for detail)\n",
      "Saved segment 26.551535-699.76724 of video 189224 as /home/nele_pauline_suffo/ProcessedData/videos_superannotate/feature_split/189224_Drawing.mp4\n",
      "All segments have been processed and saved.\n"
     ]
    },
    {
     "name": "stderr",
     "output_type": "stream",
     "text": [
      "Input #0, mov,mp4,m4a,3gp,3g2,mj2, from '/home/nele_pauline_suffo/ProcessedData/videos_superannotate//189224.MP4':\n",
      "  Metadata:\n",
      "    major_brand     : avc1\n",
      "    minor_version   : 0\n",
      "    compatible_brands: avc1isom\n",
      "    creation_time   : 2023-12-09T19:17:26.000000Z\n",
      "  Duration: 00:30:00.20, start: 0.000000, bitrate: 8020 kb/s\n",
      "  Stream #0:0[0x1](eng): Video: h264 (Main) (avc1 / 0x31637661), yuvj420p(pc, progressive), 2304x1296 [SAR 1:1 DAR 16:9], 7895 kb/s, 29.97 fps, 29.97 tbr, 30k tbn (default)\n",
      "    Metadata:\n",
      "      creation_time   : 2023-12-09T19:17:26.000000Z\n",
      "      handler_name    :  Ambarella AVC\n",
      "      vendor_id       : [0][0][0][0]\n",
      "      encoder         : Ambarella AVC encoder\n",
      "  Stream #0:1[0x2](eng): Audio: aac (LC) (mp4a / 0x6134706D), 48000 Hz, mono, fltp, 64 kb/s (default)\n",
      "    Metadata:\n",
      "      creation_time   : 2023-12-09T19:17:26.000000Z\n",
      "      handler_name    :  Ambarella AAC\n",
      "      vendor_id       : [0][0][0][0]\n",
      "  Stream #0:2[0x3](eng): Subtitle: mov_text (text / 0x74786574), 10 kb/s (default)\n",
      "    Metadata:\n",
      "      creation_time   : 2023-12-09T19:17:26.000000Z\n",
      "      handler_name    :  Ambarella EXT\n",
      "Invalid encoder type 'libx264'\n"
     ]
    }
   ],
   "source": [
    "\n",
    "\n",
    "# Load JSON file\n",
    "json_file = '/home/nele_pauline_suffo/projects/mmaction2/data/quantex_share/anno_train.json'\n",
    "with open(json_file, 'r') as f:\n",
    "    data = json.load(f)\n",
    "\n",
    "# Process each segment and save to new video files\n",
    "original_video_folder = '/home/nele_pauline_suffo/ProcessedData/videos_superannotate/'  # Update this path\n",
    "output_folder = '/home/nele_pauline_suffo/ProcessedData/videos_superannotate/feature_split'  # Update this path\n",
    "\n",
    "# Ensure the output directory exists\n",
    "os.makedirs(output_folder, exist_ok=True)\n",
    "\n",
    "for video_id, video_data in data.items():\n",
    "    for annotation in video_data['annotations']:\n",
    "        label = annotation['label'].replace(\" \", \"_\")  # Replace spaces with underscores\n",
    "        start_time = annotation['segment'][0]\n",
    "        end_time = annotation['segment'][1]\n",
    "        original_video_path = f\"{original_video_folder}/{video_id}.MP4\"  # Assuming original videos are in .mp4 format\n",
    "        output_video_path = f\"{output_folder}/{video_id}_{label}.mp4\"\n",
    "        \n",
    "        print(f\"Processing segment {start_time}-{end_time} of video {video_id}, label: {label}, output: {output_video_path}\")\n",
    "\n",
    "        cut_video_segment(original_video_path, start_time, end_time, output_video_path)\n",
    "        print(f\"Saved segment {start_time}-{end_time} of video {video_id} as {output_video_path}\")\n",
    "print(\"All segments have been processed and saved.\")"
   ]
  },
  {
   "cell_type": "code",
   "execution_count": null,
   "metadata": {},
   "outputs": [],
   "source": []
  }
 ],
 "metadata": {
  "kernelspec": {
   "display_name": "openmmlab",
   "language": "python",
   "name": "python3"
  },
  "language_info": {
   "codemirror_mode": {
    "name": "ipython",
    "version": 3
   },
   "file_extension": ".py",
   "mimetype": "text/x-python",
   "name": "python",
   "nbconvert_exporter": "python",
   "pygments_lexer": "ipython3",
   "version": "3.8.18"
  }
 },
 "nbformat": 4,
 "nbformat_minor": 2
}
